<?xml version="1.0" encoding="UTF-8" standalone="no"?>
<svg xmlns="http://www.w3.org/2000/svg" width="200" height="200" viewBox="0 0 200 200">
  <!-- Círculo externo -->
  <circle cx="100" cy="100" r="90" fill="white" stroke="#D4AF37" stroke-width="4"/>
  
  <!-- Folhas verdes -->
  <path d="M100,40 C80,60 70,90 90,110 C110,90 120,60 100,40 Z" fill="#4CAF50"/>
  <path d="M130,70 C110,80 100,110 120,130 C140,110 150,80 130,70 Z" fill="#8BC34A"/>
  <path d="M70,70 C90,80 100,110 80,130 C60,110 50,80 70,70 Z" fill="#8BC34A"/>
  
  <!-- Livro aberto (representando saúde/conhecimento) -->
  <path d="M60,110 L100,130 L140,110 L140,150 L100,170 L60,150 Z" fill="#FFF" stroke="#D4AF37" stroke-width="2"/>
  <path d="M100,130 L100,170" stroke="#D4AF37" stroke-width="2"/>
  
  <!-- Detalhes do livro -->
  <path d="M70,115 L90,125" stroke="#D4AF37" stroke-width="1"/>
  <path d="M70,120 L90,130" stroke="#D4AF37" stroke-width="1"/>
  <path d="M70,125 L90,135" stroke="#D4AF37" stroke-width="1"/>
  
  <path d="M110,125 L130,115" stroke="#D4AF37" stroke-width="1"/>
  <path d="M110,130 L130,120" stroke="#D4AF37" stroke-width="1"/>
  <path d="M110,135 L130,125" stroke="#D4AF37" stroke-width="1"/>
</svg>
